<svg version="1" xmlns="http://www.w3.org/2000/svg" width="933.333" height="933.333" viewBox="0 0 700.000000 700.000000"><path d="M212.2 290.2c0 94.2-.1 172.5-.1 173.9-.1 2.3-1.1 3.2-7.8 6.3-10 4.8-21.2 15.9-26.1 25.9-16.7 34.2 2.7 74.7 39.7 83.1 31.4 7.2 64.1-14.6 69.7-46.4 4-22.9-6.3-46.9-25.4-59l-7.1-4.5v-55.8l-.1-55.8 69.3.4c68.1.3 69.3.4 76.7 2.6 26 7.7 42.6 22.8 55.6 50.6 6.1 13.2 10.4 26.5 17.9 56 7.7 30.3 13.4 48.8 17.4 56.5l2.8 5.5 20.8.3 20.7.2-2.1-3.2c-6.5-9.8-13.5-29.5-18.4-51.8-2.4-10.6-3-14-4.3-22.5-2.9-18.5-8.8-41.6-15.1-58.5-12.1-32.5-28.8-53.9-47.3-60.7l-5.4-2 3.4-.7c23.9-4.6 39.6-12.3 52.6-25.8 11.9-12.3 21.2-31.9 24-50.6.3-2 .8-4.8 1.1-6.2.9-4.5 1.1-39.4.2-46.6-5.1-40-27.4-63.2-71.9-74.8-5.2-1.4-11.7-2.8-14.5-3.2-2.7-.3-5.2-.8-5.5-.9-.3-.2-3.7-.7-7.5-1-3.9-.4-8.3-1-10-1.3-1.6-.2-48-.7-103.1-.9l-100.1-.4-.1 171.3zm200.3-134.9c1.7.2 5.5.8 8.5 1.1 3 .4 9.2 1.6 13.8 2.7 35.4 8.2 52.9 28.5 53.5 61.9.6 37.2-17.1 65.6-49.8 79.8-5.5 2.4-15.7 5.9-19.5 6.7-.3.1-1.8.4-3.5.8-1.6.4-4.3.9-6 1.2-1.6.3-4.1.7-5.5 1-6.8 1.4-26.9 1.9-85 1.9l-63.5.1-.3-79.4-.2-79.3 77.2.5c42.5.3 78.7.7 80.3 1z"/></svg>