<?xml version="1.0" encoding="UTF-8" standalone="no"?>
<!-- Created with Inkscape (http://www.inkscape.org/) -->

<svg
   xmlns:dc="http://purl.org/dc/elements/1.1/"
   xmlns:cc="http://creativecommons.org/ns#"
   xmlns:rdf="http://www.w3.org/1999/02/22-rdf-syntax-ns#"
   xmlns:svg="http://www.w3.org/2000/svg"
   xmlns="http://www.w3.org/2000/svg"
   xmlns:sodipodi="http://sodipodi.sourceforge.net/DTD/sodipodi-0.dtd"
   xmlns:inkscape="http://www.inkscape.org/namespaces/inkscape"
   width="58.779045mm"
   height="11.953086mm"
   viewBox="0 0 58.779045 11.953086"
   version="1.1"
   id="svg1307"
   inkscape:version="0.92.4 (5da689c313, 2019-01-14)"
   sodipodi:docname="logo_dark_bright_bg.svg">
  <defs
     id="defs1301">
    <clipPath
       clipPathUnits="userSpaceOnUse"
       id="clipPath1357">
      <path
         d="M 0,0 H 595.276 V 841.89 H 0 Z"
         id="path1355"
         inkscape:connector-curvature="0" />
    </clipPath>
    <clipPath
       clipPathUnits="userSpaceOnUse"
       id="clipPath1262">
      <path
         d="M 0,0 H 595.276 V 841.89 H 0 Z"
         id="path1260"
         inkscape:connector-curvature="0" />
    </clipPath>
  </defs>
  <sodipodi:namedview
     id="base"
     pagecolor="#ffffff"
     bordercolor="#666666"
     borderopacity="1.0"
     inkscape:pageopacity="0.0"
     inkscape:pageshadow="2"
     inkscape:zoom="1.4"
     inkscape:cx="-89.822879"
     inkscape:cy="-55.879362"
     inkscape:document-units="mm"
     inkscape:current-layer="layer1"
     showgrid="false"
     fit-margin-top="1"
     fit-margin-left="1"
     fit-margin-right="1"
     fit-margin-bottom="1"
     inkscape:window-width="1920"
     inkscape:window-height="1017"
     inkscape:window-x="-8"
     inkscape:window-y="-8"
     inkscape:window-maximized="1" />
  <metadata
     id="metadata1304">
    <rdf:RDF>
      <cc:Work
         rdf:about="">
        <dc:format>image/svg+xml</dc:format>
        <dc:type
           rdf:resource="http://purl.org/dc/dcmitype/StillImage" />
        <dc:title></dc:title>
      </cc:Work>
    </rdf:RDF>
  </metadata>
  <g
     inkscape:label="Layer 1"
     inkscape:groupmode="layer"
     id="layer1"
     transform="translate(-10.675954,-12.077028)">
    <rect
       style="opacity:1;vector-effect:none;fill:#ffffff;fill-opacity:1;stroke:none;stroke-width:0.51822066;stroke-linecap:round;stroke-linejoin:miter;stroke-miterlimit:4;stroke-dasharray:none;stroke-dashoffset:0;stroke-opacity:1"
       id="rect1248"
       width="27.406124"
       height="9.9530859"
       x="41.048874"
       y="13.077028"
       ry="0"
       inkscape:export-filename="C:\Users\Yuval\Projects\inflow\inflow1\client\discovery\assets\logo_dark_bright_bg.png"
       inkscape:export-xdpi="599.71222"
       inkscape:export-ydpi="599.71222" />
    <rect
       ry="0"
       y="13.077028"
       x="11.675954"
       height="9.9530859"
       width="27.406124"
       id="rect1210"
       style="opacity:1;vector-effect:none;fill:#1e2129;fill-opacity:1;stroke:none;stroke-width:0.51822066;stroke-linecap:round;stroke-linejoin:miter;stroke-miterlimit:4;stroke-dasharray:none;stroke-dashoffset:0;stroke-opacity:1"
       inkscape:export-filename="C:\Users\Yuval\Projects\inflow\inflow1\client\discovery\assets\logo_dark_bright_bg.png"
       inkscape:export-xdpi="599.71222"
       inkscape:export-ydpi="599.71222" />
    <g
       id="g1122"
       transform="matrix(0.25172011,0,0,0.25172011,48.023338,-16.888961)"
       inkscape:export-filename="C:\Users\Yuval\Projects\inflow\inflow1\client\discovery\assets\logo_dark_bright_bg.png"
       inkscape:export-xdpi="599.71222"
       inkscape:export-ydpi="599.71222">
      <g
         id="g1134"
         style="fill:#ffffff">
        <path
           d="m -136.80043,125.45379 h 10.52195 c 4.4136,0 7.97983,1.62419 7.97983,6.49711 0,3.38949 -2.01259,5.89633 -5.40244,6.46112 v 0.0709 c 4.62563,0.5648 5.01403,4.06047 5.01403,7.37941 0,1.94204 -0.0353,3.8488 0.74154,4.80236 h -1.73037 c -1.94169,-3.49567 2.29517,-11.47551 -6.60259,-11.47551 h -8.96832 v 11.47551 h -1.55363 z m 10.52195,12.39344 c 3.67206,0 6.42655,-1.73003 6.42655,-5.7905 0,-3.81353 -3.03706,-5.26097 -6.42655,-5.26097 h -8.96832 v 11.05147 z"
           style="fill:#ffffff;fill-opacity:1;fill-rule:nonzero;stroke:none;stroke-width:0.35277778"
           id="path1090"
           inkscape:connector-curvature="0" />
        <path
           d="m -101.42331,147.31007 c 0,1.02411 -0.0349,2.18934 1.2005,2.18934 0.247653,0 0.565153,-0.0353 0.988839,-0.10619 v 1.12995 c -0.388408,0.10619 -0.706261,0.14146 -1.094669,0.14146 -2.11843,0 -2.43593,-1.16522 -2.43593,-2.6483 v -0.9532 h -0.0709 c -0.84772,2.1537 -3.24802,4.02519 -6.74405,4.02519 -3.42477,0 -6.07272,-1.30669 -6.07272,-5.11986 0,-4.2725 3.67171,-5.08459 6.67279,-5.36716 6.00287,-0.38841 6.24981,-0.84738 6.24981,-3.7779 0,-0.8121 -0.91792,-3.56623 -5.0493,-3.56623 -3.24803,0 -5.40209,1.69474 -5.57883,4.83729 h -1.34162 c 0.17675,-3.98992 2.64795,-6.00252 6.92045,-6.00252 3.17782,0 6.35564,0.95321 6.35564,4.73146 z m -1.34126,-6.95572 c -1.02447,1.23578 -3.95499,1.02411 -6.56766,1.41217 -3.2131,0.38841 -4.97876,1.48308 -4.97876,4.20194 0,2.22426 1.55399,3.95463 4.76709,3.95463 6.10835,0 6.77933,-5.22569 6.77933,-6.17925 z"
           style="fill:#ffffff;fill-opacity:1;fill-rule:nonzero;stroke:none;stroke-width:0.35277778"
           id="path1092"
           inkscape:connector-curvature="0" />
        <path
           d="m -90.478733,133.68099 h -3.954639 V 146.357 c 0,2.89525 1.376892,3.24838 3.919361,3.14255 v 1.16487 c -2.683933,0.17674 -5.437716,-0.21167 -5.260975,-4.30742 v -12.67601 h -3.354563 v -1.16522 h 3.354563 v -5.64939 h 1.341614 v 5.64939 h 3.954639 z"
           style="fill:#ffffff;fill-opacity:1;fill-rule:nonzero;stroke:none;stroke-width:0.35277778"
           id="path1094"
           inkscape:connector-curvature="0" />
        <path
           inkscape:connector-curvature="0"
           id="path1096"
           style="fill:#ffffff;fill-opacity:1;fill-rule:nonzero;stroke:none;stroke-width:0.35277775"
           d="m -87.690978,125.45369 h 1.341612 v 3.63714 h -1.341612 z m 0,7.0619 h 1.341612 v 18.14901 h -1.341612 z" />
        <g
           id="g1104"
           transform="matrix(0.35277777,0,0,-0.35277777,-194.95835,396.36514)"
           style="fill:#ffffff">
          <g
             clip-path="url(#clipPath1357)"
             id="g1102"
             style="fill:#ffffff">
            <g
               transform="translate(358.7126,732.0054)"
               id="g1100"
               style="fill:#ffffff">
              <path
                 inkscape:connector-curvature="0"
                 id="path1098"
                 style="fill:#ffffff;fill-opacity:1;fill-rule:nonzero;stroke:none"
                 d="m 0,0 c -0.801,9.108 -8.107,13.812 -17.414,13.812 -12.812,0 -19.819,-11.409 -19.819,-23.12 0,-13.912 6.506,-24.121 19.819,-24.121 9.607,0 16.613,6.705 17.915,16.014 h 3.803 c -1.601,-12.311 -10.71,-19.318 -21.718,-19.318 -16.716,0 -23.622,13.012 -23.622,27.425 0,14.412 8.408,26.424 23.622,26.424 C -6.305,17.116 2.703,11.611 3.803,0 Z" />
            </g>
          </g>
        </g>
        <path
           inkscape:connector-curvature="0"
           id="path1106"
           style="fill:#ffffff;fill-opacity:1;fill-rule:nonzero;stroke:none;stroke-width:0.35277775"
           d="m -62.093776,150.6646 h -1.341615 v -25.21091 h 1.341615 z" />
        <path
           d="m -57.292258,141.76669 c -0.105833,4.27249 2.189339,8.15622 6.673497,8.15622 3.424767,0 5.825772,-2.0126 6.496755,-5.40208 h 1.341967 c -0.706614,4.27213 -3.496028,6.56766 -7.838722,6.56766 -5.260975,0 -8.120944,-4.16666 -8.015111,-9.18069 -0.105833,-4.9784 2.542117,-9.81604 8.015111,-9.81604 5.649383,0 8.262408,4.44888 7.979833,9.67493 z m 13.311716,-1.16522 c -0.105833,-3.81318 -2.506838,-7.34413 -6.638219,-7.34413 -4.025194,0 -6.390922,3.74262 -6.673497,7.34413 z"
           style="fill:#ffffff;fill-opacity:1;fill-rule:nonzero;stroke:none;stroke-width:0.35277778"
           id="path1108"
           inkscape:connector-curvature="0" />
      </g>
      <path
         inkscape:connector-curvature="0"
         id="path1110"
         style="fill:#f7941e;fill-opacity:1;fill-rule:nonzero;stroke:none;stroke-width:0.35277778"
         d="m -84.73918,127.41788 c 0,1.27423 -1.033286,2.30752 -2.307519,2.30752 -1.274586,0 -2.30752,-1.03329 -2.30752,-2.30752 0,-1.27459 1.032934,-2.30752 2.30752,-2.30752 1.274233,0 2.307519,1.03293 2.307519,2.30752" />
      <path
         inkscape:connector-curvature="0"
         id="path1112"
         style="fill:none;stroke:#ffffff;stroke-width:0.49036109;stroke-linecap:butt;stroke-linejoin:miter;stroke-miterlimit:10;stroke-dasharray:none;stroke-opacity:1"
         d="m -84.73918,127.41788 c 0,1.27423 -1.033286,2.30752 -2.307519,2.30752 -1.274586,0 -2.30752,-1.03329 -2.30752,-2.30752 0,-1.27459 1.032934,-2.30752 2.30752,-2.30752 1.274233,0 2.307519,1.03293 2.307519,2.30752 z" />
      <path
         inkscape:connector-curvature="0"
         id="path1114"
         style="fill:#f7941e;fill-opacity:1;fill-rule:nonzero;stroke:none;stroke-width:0.35277778"
         d="m -133.39242,150.21216 c 0,1.27423 -1.03293,2.30752 -2.30752,2.30752 -1.27459,0 -2.30752,-1.03329 -2.30752,-2.30752 0,-1.27459 1.03293,-2.30752 2.30752,-2.30752 1.27459,0 2.30752,1.03293 2.30752,2.30752" />
      <path
         inkscape:connector-curvature="0"
         id="path1116"
         style="fill:none;stroke:#ffffff;stroke-width:0.49036109;stroke-linecap:butt;stroke-linejoin:miter;stroke-miterlimit:10;stroke-dasharray:none;stroke-opacity:1"
         d="m -133.39242,150.21216 c 0,1.27423 -1.03293,2.30752 -2.30752,2.30752 -1.27459,0 -2.30752,-1.03329 -2.30752,-2.30752 0,-1.27459 1.03293,-2.30752 2.30752,-2.30752 1.27459,0 2.30752,1.03293 2.30752,2.30752 z" />
      <path
         inkscape:connector-curvature="0"
         id="path1118"
         style="fill:#f7941e;fill-opacity:1;fill-rule:nonzero;stroke:none;stroke-width:0.35277778"
         d="m -41.909207,145.66849 c 0,1.27459 -1.032933,2.30752 -2.307519,2.30752 -1.274586,0 -2.30752,-1.03293 -2.30752,-2.30752 0,-1.27459 1.032934,-2.30752 2.30752,-2.30752 1.274586,0 2.307519,1.03293 2.307519,2.30752" />
      <path
         inkscape:connector-curvature="0"
         id="path1120"
         style="fill:none;stroke:#ffffff;stroke-width:0.49036109;stroke-linecap:butt;stroke-linejoin:miter;stroke-miterlimit:10;stroke-dasharray:none;stroke-opacity:1"
         d="m -41.909207,145.66849 c 0,1.27459 -1.032933,2.30752 -2.307519,2.30752 -1.274586,0 -2.30752,-1.03293 -2.30752,-2.30752 0,-1.27459 1.032934,-2.30752 2.30752,-2.30752 1.274586,0 2.307519,1.03293 2.307519,2.30752 z" />
    </g>
    <g
       id="g1246"
       transform="matrix(0.25171704,0,0,0.25171704,77.39598,-16.888535)"
       inkscape:export-filename="C:\Users\Yuval\Projects\inflow\inflow1\client\discovery\assets\logo_dark_bright_bg.png"
       inkscape:export-xdpi="599.71222"
       inkscape:export-ydpi="599.71222">
      <path
         inkscape:connector-curvature="0"
         id="path1214"
         style="fill:#808285;fill-opacity:1;fill-rule:nonzero;stroke:none;stroke-width:0.35277778"
         d="m -136.80043,125.45379 h 10.52195 c 4.4136,0 7.97983,1.62419 7.97983,6.49711 0,3.38949 -2.01259,5.89633 -5.40244,6.46112 v 0.0709 c 4.62563,0.5648 5.01403,4.06047 5.01403,7.37941 0,1.94204 -0.0353,3.8488 0.74154,4.80236 h -1.73037 c -1.94169,-3.49567 2.29517,-11.47551 -6.60259,-11.47551 h -8.96832 v 11.47551 h -1.55363 z m 10.52195,12.39344 c 3.67206,0 6.42655,-1.73003 6.42655,-5.7905 0,-3.81353 -3.03706,-5.26097 -6.42655,-5.26097 h -8.96832 v 11.05147 z" />
      <path
         inkscape:connector-curvature="0"
         id="path1216"
         style="fill:#808285;fill-opacity:1;fill-rule:nonzero;stroke:none;stroke-width:0.35277778"
         d="m -101.42331,147.31007 c 0,1.02411 -0.0349,2.18934 1.2005,2.18934 0.247653,0 0.565153,-0.0353 0.988839,-0.10619 v 1.12995 c -0.388408,0.10619 -0.706261,0.14146 -1.094669,0.14146 -2.11843,0 -2.43593,-1.16522 -2.43593,-2.6483 v -0.9532 h -0.0709 c -0.84772,2.1537 -3.24802,4.02519 -6.74405,4.02519 -3.42477,0 -6.07272,-1.30669 -6.07272,-5.11986 0,-4.2725 3.67171,-5.08459 6.67279,-5.36716 6.00287,-0.38841 6.24981,-0.84738 6.24981,-3.7779 0,-0.8121 -0.91792,-3.56623 -5.0493,-3.56623 -3.24803,0 -5.40209,1.69474 -5.57883,4.83729 h -1.34162 c 0.17675,-3.98992 2.64795,-6.00252 6.92045,-6.00252 3.17782,0 6.35564,0.95321 6.35564,4.73146 z m -1.34126,-6.95572 c -1.02447,1.23578 -3.95499,1.02411 -6.56766,1.41217 -3.2131,0.38841 -4.97876,1.48308 -4.97876,4.20194 0,2.22426 1.55399,3.95463 4.76709,3.95463 6.10835,0 6.77933,-5.22569 6.77933,-6.17925 z" />
      <path
         inkscape:connector-curvature="0"
         id="path1218"
         style="fill:#808285;fill-opacity:1;fill-rule:nonzero;stroke:none;stroke-width:0.35277778"
         d="m -90.478733,133.68099 h -3.954639 V 146.357 c 0,2.89525 1.376892,3.24838 3.919361,3.14255 v 1.16487 c -2.683933,0.17674 -5.437716,-0.21167 -5.260975,-4.30742 v -12.67601 h -3.354563 v -1.16522 h 3.354563 v -5.64939 h 1.341614 v 5.64939 h 3.954639 z" />
      <path
         d="m -87.690978,125.45369 h 1.341612 v 3.63714 h -1.341612 z m 0,7.0619 h 1.341612 v 18.14901 h -1.341612 z"
         style="fill:#808285;fill-opacity:1;fill-rule:nonzero;stroke:none;stroke-width:0.35277775"
         id="path1220"
         inkscape:connector-curvature="0" />
      <g
         transform="matrix(0.35277777,0,0,-0.35277777,-194.95835,396.36514)"
         id="g1228">
        <g
           id="g1226"
           clip-path="url(#clipPath1357)">
          <g
             id="g1224"
             transform="translate(358.7126,732.0054)">
            <path
               d="m 0,0 c -0.801,9.108 -8.107,13.812 -17.414,13.812 -12.812,0 -19.819,-11.409 -19.819,-23.12 0,-13.912 6.506,-24.121 19.819,-24.121 9.607,0 16.613,6.705 17.915,16.014 h 3.803 c -1.601,-12.311 -10.71,-19.318 -21.718,-19.318 -16.716,0 -23.622,13.012 -23.622,27.425 0,14.412 8.408,26.424 23.622,26.424 C -6.305,17.116 2.703,11.611 3.803,0 Z"
               style="fill:#808285;fill-opacity:1;fill-rule:nonzero;stroke:none"
               id="path1222"
               inkscape:connector-curvature="0" />
          </g>
        </g>
      </g>
      <path
         d="m -62.093776,150.6646 h -1.341615 v -25.21091 h 1.341615 z"
         style="fill:#808285;fill-opacity:1;fill-rule:nonzero;stroke:none;stroke-width:0.35277775"
         id="path1230"
         inkscape:connector-curvature="0" />
      <path
         inkscape:connector-curvature="0"
         id="path1232"
         style="fill:#808285;fill-opacity:1;fill-rule:nonzero;stroke:none;stroke-width:0.35277778"
         d="m -57.292258,141.76669 c -0.105833,4.27249 2.189339,8.15622 6.673497,8.15622 3.424767,0 5.825772,-2.0126 6.496755,-5.40208 h 1.341967 c -0.706614,4.27213 -3.496028,6.56766 -7.838722,6.56766 -5.260975,0 -8.120944,-4.16666 -8.015111,-9.18069 -0.105833,-4.9784 2.542117,-9.81604 8.015111,-9.81604 5.649383,0 8.262408,4.44888 7.979833,9.67493 z m 13.311716,-1.16522 c -0.105833,-3.81318 -2.506838,-7.34413 -6.638219,-7.34413 -4.025194,0 -6.390922,3.74262 -6.673497,7.34413 z" />
      <path
         inkscape:connector-curvature="0"
         id="path1234"
         style="fill:#f7941e;fill-opacity:1;fill-rule:nonzero;stroke:none;stroke-width:0.35277778"
         d="m -84.73918,127.41788 c 0,1.27423 -1.033286,2.30752 -2.307519,2.30752 -1.274586,0 -2.30752,-1.03329 -2.30752,-2.30752 0,-1.27459 1.032934,-2.30752 2.30752,-2.30752 1.274233,0 2.307519,1.03293 2.307519,2.30752" />
      <path
         inkscape:connector-curvature="0"
         id="path1236"
         style="fill:none;stroke:#ffffff;stroke-width:0.49036109;stroke-linecap:butt;stroke-linejoin:miter;stroke-miterlimit:10;stroke-dasharray:none;stroke-opacity:1"
         d="m -84.73918,127.41788 c 0,1.27423 -1.033286,2.30752 -2.307519,2.30752 -1.274586,0 -2.30752,-1.03329 -2.30752,-2.30752 0,-1.27459 1.032934,-2.30752 2.30752,-2.30752 1.274233,0 2.307519,1.03293 2.307519,2.30752 z" />
      <path
         inkscape:connector-curvature="0"
         id="path1238"
         style="fill:#f7941e;fill-opacity:1;fill-rule:nonzero;stroke:none;stroke-width:0.35277778"
         d="m -133.39242,150.21216 c 0,1.27423 -1.03293,2.30752 -2.30752,2.30752 -1.27459,0 -2.30752,-1.03329 -2.30752,-2.30752 0,-1.27459 1.03293,-2.30752 2.30752,-2.30752 1.27459,0 2.30752,1.03293 2.30752,2.30752" />
      <path
         inkscape:connector-curvature="0"
         id="path1240"
         style="fill:none;stroke:#ffffff;stroke-width:0.49036109;stroke-linecap:butt;stroke-linejoin:miter;stroke-miterlimit:10;stroke-dasharray:none;stroke-opacity:1"
         d="m -133.39242,150.21216 c 0,1.27423 -1.03293,2.30752 -2.30752,2.30752 -1.27459,0 -2.30752,-1.03329 -2.30752,-2.30752 0,-1.27459 1.03293,-2.30752 2.30752,-2.30752 1.27459,0 2.30752,1.03293 2.30752,2.30752 z" />
      <path
         inkscape:connector-curvature="0"
         id="path1242"
         style="fill:#f7941e;fill-opacity:1;fill-rule:nonzero;stroke:none;stroke-width:0.35277778"
         d="m -41.909207,145.66849 c 0,1.27459 -1.032933,2.30752 -2.307519,2.30752 -1.274586,0 -2.30752,-1.03293 -2.30752,-2.30752 0,-1.27459 1.032934,-2.30752 2.30752,-2.30752 1.274586,0 2.307519,1.03293 2.307519,2.30752" />
      <path
         inkscape:connector-curvature="0"
         id="path1244"
         style="fill:none;stroke:#ffffff;stroke-width:0.49036109;stroke-linecap:butt;stroke-linejoin:miter;stroke-miterlimit:10;stroke-dasharray:none;stroke-opacity:1"
         d="m -41.909207,145.66849 c 0,1.27459 -1.032933,2.30752 -2.307519,2.30752 -1.274586,0 -2.30752,-1.03293 -2.30752,-2.30752 0,-1.27459 1.032934,-2.30752 2.30752,-2.30752 1.274586,0 2.307519,1.03293 2.307519,2.30752 z" />
    </g>
  </g>
</svg>
